{
	"asset":{
		"generator":"Khronos glTF Blender I/O v3.6.28",
		"version":"2.0"
	},
	"scene":0,
	"scenes":[
		{
			"name":"Scene",
			"nodes":[
				0
			]
		}
	],
	"nodes":[
		{
			"mesh":0,
			"name":"Cube"
		}
	],
	"materials":[
		{
			"doubleSided":true,
			"name":"Material",
			"pbrMetallicRoughness":{
				"baseColorFactor":[
					0.8000000715255737,
					0.46420687437057495,
					0,
					1
				],
				"metallicFactor":0,
				"roughnessFactor":0.4000000059604645
			}
		}
	],
	"meshes":[
		{
			"name":"Cube",
			"primitives":[
				{
					"attributes":{
						"POSITION":0,
						"NORMAL":1,
						"TEXCOORD_0":2
					},
					"indices":3,
					"material":0
				}
			]
		}
	],
	"accessors":[
		{
			"bufferView":0,
			"componentType":5126,
			"count":9818,
			"max":[
				0.7849442958831787,
				4.4731764793396,
				0.35662007331848145
			],
			"min":[
				-1.6999527215957642,
				-1.862645371275562e-09,
				-0.35662007331848145
			],
			"type":"VEC3"
		},
		{
			"bufferView":1,
			"componentType":5126,
			"count":9818,
			"type":"VEC3"
		},
		{
			"bufferView":2,
			"componentType":5126,
			"count":9818,
			"type":"VEC2"
		},
		{
			"bufferView":3,
			"componentType":5123,
			"count":50616,
			"type":"SCALAR"
		}
	],
	"bufferViews":[
		{
			"buffer":0,
			"byteLength":117816,
			"byteOffset":0,
			"target":34962
		},
		{
			"buffer":0,
			"byteLength":117816,
			"byteOffset":117816,
			"target":34962
		},
		{
			"buffer":0,
			"byteLength":78544,
			"byteOffset":235632,
			"target":34962
		},
		{
			"buffer":0,
			"byteLength":101232,
			"byteOffset":314176,
			"target":34963
		}
	],
	"buffers":[
		{
			"byteLength":415408,
			"uri":"data:application/octet-stream;base64,"
		}
	]
}
