{
    "asset" : {
        "generator" : "Khronos glTF Blender I/O v3.3.36",
        "version" : "2.0"
    },
    "scene" : 0,
    "scenes" : [
        {
            "name" : "Scene",
            "nodes" : [
                0,
                1,
                2
            ]
        }
    ],
    "nodes" : [
        {
            "mesh" : 0,
            "name" : "\u5e73\u9762"
        },
        {
            "mesh" : 1,
            "name" : "\u5e73\u9762.001"
        },
        {
            "mesh" : 2,
            "name" : "\u5e73\u9762.002"
        }
    ],
    "materials" : [
        {
            "doubleSided" : true,
            "name" : "\u30de\u30c6\u30ea\u30a2\u30eb",
            "pbrMetallicRoughness" : {
                "baseColorFactor" : [
                    0.029094276949763298,
                    0.029094276949763298,
                    0.029094276949763298,
                    1
                ],
                "metallicFactor" : 0,
                "roughnessFactor" : 0.4455782175064087
            }
        },
        {
            "doubleSided" : true,
            "name" : "\u30de\u30c6\u30ea\u30a2\u30eb.001",
            "pbrMetallicRoughness" : {
                "baseColorFactor" : [
                    0.2529304325580597,
                    0.2529304325580597,
                    0.2529304325580597,
                    1
                ],
                "metallicFactor" : 0
            }
        }
    ],
    "meshes" : [
        {
            "name" : "\u5e73\u9762",
            "primitives" : [
                {
                    "attributes" : {
                        "POSITION" : 0,
                        "NORMAL" : 1,
                        "TEXCOORD_0" : 2
                    },
                    "indices" : 3,
                    "material" : 0
                }
            ]
        },
        {
            "name" : "\u5e73\u9762.001",
            "primitives" : [
                {
                    "attributes" : {
                        "POSITION" : 4,
                        "NORMAL" : 5,
                        "TEXCOORD_0" : 6
                    },
                    "indices" : 7,
                    "material" : 0
                }
            ]
        },
        {
            "name" : "\u5e73\u9762",
            "primitives" : [
                {
                    "attributes" : {
                        "POSITION" : 8,
                        "NORMAL" : 9,
                        "TEXCOORD_0" : 10
                    },
                    "indices" : 11,
                    "material" : 1
                },
                {
                    "attributes" : {
                        "POSITION" : 12,
                        "NORMAL" : 13,
                        "TEXCOORD_0" : 14
                    },
                    "indices" : 15,
                    "material" : 0
                }
            ]
        }
    ],
    "accessors" : [
        {
            "bufferView" : 0,
            "componentType" : 5126,
            "count" : 3568,
            "max" : [
                -0.2852661609649658,
                1.377807855606079,
                -0.07753337919712067
            ],
            "min" : [
                -1.6818711757659912,
                -1.409935712814331,
                -0.8328567147254944
            ],
            "type" : "VEC3"
        },
        {
            "bufferView" : 1,
            "componentType" : 5126,
            "count" : 3568,
            "type" : "VEC3"
        },
        {
            "bufferView" : 2,
            "componentType" : 5126,
            "count" : 3568,
            "type" : "VEC2"
        },
        {
            "bufferView" : 3,
            "componentType" : 5123,
            "count" : 5352,
            "type" : "SCALAR"
        },
        {
            "bufferView" : 4,
            "componentType" : 5126,
            "count" : 3552,
            "max" : [
                1.6138936281204224,
                1.388226866722107,
                -0.07753264904022217
            ],
            "min" : [
                0.19238318502902985,
                -1.4315863847732544,
                -0.8315168619155884
            ],
            "type" : "VEC3"
        },
        {
            "bufferView" : 5,
            "componentType" : 5126,
            "count" : 3552,
            "type" : "VEC3"
        },
        {
            "bufferView" : 6,
            "componentType" : 5126,
            "count" : 3552,
            "type" : "VEC2"
        },
        {
            "bufferView" : 7,
            "componentType" : 5123,
            "count" : 5328,
            "type" : "SCALAR"
        },
        {
            "bufferView" : 8,
            "componentType" : 5126,
            "count" : 1370,
            "max" : [
                0.9185401201248169,
                0.9222704172134399,
                -0.07062738388776779
            ],
            "min" : [
                -0.9991323947906494,
                -0.7209070920944214,
                -0.40994203090667725
            ],
            "type" : "VEC3"
        },
        {
            "bufferView" : 9,
            "componentType" : 5126,
            "count" : 1370,
            "type" : "VEC3"
        },
        {
            "bufferView" : 10,
            "componentType" : 5126,
            "count" : 1370,
            "type" : "VEC2"
        },
        {
            "bufferView" : 11,
            "componentType" : 5123,
            "count" : 2250,
            "type" : "SCALAR"
        },
        {
            "bufferView" : 12,
            "componentType" : 5126,
            "count" : 256,
            "max" : [
                1.0586637258529663,
                1.205142617225647,
                -0.13004261255264282
            ],
            "min" : [
                -1.174912452697754,
                -1.2874870300292969,
                -0.39531242847442627
            ],
            "type" : "VEC3"
        },
        {
            "bufferView" : 13,
            "componentType" : 5126,
            "count" : 256,
            "type" : "VEC3"
        },
        {
            "bufferView" : 14,
            "componentType" : 5126,
            "count" : 256,
            "type" : "VEC2"
        },
        {
            "bufferView" : 15,
            "componentType" : 5123,
            "count" : 432,
            "type" : "SCALAR"
        }
    ],
    "bufferViews" : [
        {
            "buffer" : 0,
            "byteLength" : 42816,
            "byteOffset" : 0,
            "target" : 34962
        },
        {
            "buffer" : 0,
            "byteLength" : 42816,
            "byteOffset" : 42816,
            "target" : 34962
        },
        {
            "buffer" : 0,
            "byteLength" : 28544,
            "byteOffset" : 85632,
            "target" : 34962
        },
        {
            "buffer" : 0,
            "byteLength" : 10704,
            "byteOffset" : 114176,
            "target" : 34963
        },
        {
            "buffer" : 0,
            "byteLength" : 42624,
            "byteOffset" : 124880,
            "target" : 34962
        },
        {
            "buffer" : 0,
            "byteLength" : 42624,
            "byteOffset" : 167504,
            "target" : 34962
        },
        {
            "buffer" : 0,
            "byteLength" : 28416,
            "byteOffset" : 210128,
            "target" : 34962
        },
        {
            "buffer" : 0,
            "byteLength" : 10656,
            "byteOffset" : 238544,
            "target" : 34963
        },
        {
            "buffer" : 0,
            "byteLength" : 16440,
            "byteOffset" : 249200,
            "target" : 34962
        },
        {
            "buffer" : 0,
            "byteLength" : 16440,
            "byteOffset" : 265640,
            "target" : 34962
        },
        {
            "buffer" : 0,
            "byteLength" : 10960,
            "byteOffset" : 282080,
            "target" : 34962
        },
        {
            "buffer" : 0,
            "byteLength" : 4500,
            "byteOffset" : 293040,
            "target" : 34963
        },
        {
            "buffer" : 0,
            "byteLength" : 3072,
            "byteOffset" : 297540,
            "target" : 34962
        },
        {
            "buffer" : 0,
            "byteLength" : 3072,
            "byteOffset" : 300612,
            "target" : 34962
        },
        {
            "buffer" : 0,
            "byteLength" : 2048,
            "byteOffset" : 303684,
            "target" : 34962
        },
        {
            "buffer" : 0,
            "byteLength" : 864,
            "byteOffset" : 305732,
            "target" : 34963
        }
    ],
    "buffers" : [
        {
            "byteLength" : 306596,
            "uri" : "new\u30c9\u30ed\u30fc\u30f3.bin"
        }
    ]
}
