<?xml version="1.0" encoding="UTF-8" standalone="no"?>
<!--?xml version="1.0" encoding="utf-8"?-->

<!-- Generator: Adobe Illustrator 18.1.1, SVG Export Plug-In . SVG Version: 6.00 Build 0)  -->

<svg
   version="1.1"
   id="_x31_0"
   x="0px"
   y="0px"
   viewBox="0 0 406.49197 879.33099"
   style="opacity:1"
   xml:space="preserve"
   sodipodi:docname="はてなマークのアイコン素材 12.svg"
   inkscape:export-filename="はてなマークのアイコン素材 12.svg"
   inkscape:export-xdpi="96"
   inkscape:export-ydpi="96"
   width="406.49197"
   height="879.33099"
   xmlns:inkscape="http://www.inkscape.org/namespaces/inkscape"
   xmlns:sodipodi="http://sodipodi.sourceforge.net/DTD/sodipodi-0.dtd"
   xmlns="http://www.w3.org/2000/svg"
   xmlns:svg="http://www.w3.org/2000/svg"><defs
   id="defs2" /><sodipodi:namedview
   id="namedview2"
   pagecolor="#505050"
   bordercolor="#ffffff"
   borderopacity="1"
   inkscape:showpageshadow="0"
   inkscape:pageopacity="0"
   inkscape:pagecheckerboard="1"
   inkscape:deskcolor="#505050" />
<style
   type="text/css"
   id="style1">
	.st0{fill:#374149;}
</style>
<rect
   style="opacity:1;fill:#3d405b;fill-opacity:0.552239;stroke:#b90000;stroke-width:4.15235;stroke-linecap:round;stroke-linejoin:round;stroke-opacity:0.727273;paint-order:markers fill stroke"
   id="rect2"
   width="402.33963"
   height="875.17865"
   x="2.076175"
   y="2.076175" /><g
   id="g2"
   transform="translate(-53.001611,194.29735)">
	<path
   class="st0"
   d="m 298.937,415.278 h -87.168 c -3.016,0 -5.461,2.441 -5.461,5.457 v 85.805 c 0,3.015 2.445,5.461 5.461,5.461 h 87.168 c 3.015,0 5.461,-2.446 5.461,-5.461 v -85.805 c 0,-3.017 -2.445,-5.457 -5.461,-5.457 z"
   style="fill:#ff8a05"
   id="path1" />
	<path
   class="st0"
   d="M 405.133,82.793 C 397.309,65.844 386.332,51.231 372.211,38.95 358.082,26.676 341.133,17.11 321.359,10.266 301.582,3.422 279.742,0 255.844,0 c -22.602,0 -43.41,3.746 -62.422,11.242 -19.015,7.5 -35.691,18.203 -50.035,32.109 -14.339,13.91 -25.968,30.75 -34.874,50.524 -5.695,12.637 -10.016,26.25 -12.958,40.836 -2.679,13.297 7.782,25.66 21.344,25.66 h 39.348 c 14.441,0 26.73,-9.879 30.609,-23.789 11.516,-41.294 34.731,-61.942 69.641,-61.942 10.43,0 19.934,1.687 28.52,5.054 8.582,3.371 15.972,8.098 22.164,14.18 6.195,6.086 11.027,13.199 14.507,21.351 3.473,8.149 5.215,17.11 5.215,26.89 0,5.215 -0.383,10.051 -1.141,14.504 -0.766,4.458 -2.77,9.238 -6.031,14.344 -3.258,5.11 -8.098,10.977 -14.504,17.602 -6.414,6.629 -15.156,14.614 -26.242,23.957 -25.645,21.297 -43.352,41.942 -53.13,61.93 -5,10.219 -8.636,24.016 -10.918,41.398 -2.266,17.254 -3.516,32.192 -3.742,56.84 -0.004,0.133 -0.008,0.246 -0.008,0.379 v 0 c 0,0.058 0,0.106 0,0.16 h 84.422 c 0,-36.504 2.496,-53.898 7.496,-64.55 2.39,-5.43 7.172,-11.898 14.344,-19.395 7.171,-7.496 16.625,-16.133 28.359,-25.914 27.16,-22.379 45.633,-43.129 55.41,-62.258 10.434,-18.902 15.648,-39.871 15.648,-62.91 0.001,-19.987 -3.913,-38.46 -11.733,-55.409 z"
   style="fill:#ff8a05"
   id="path2" />
</g>
</svg>
